<svg width="32" height="32" viewBox="0 0 36 36" fill="none" xmlns="http://www.w3.org/2000/svg">
  <circle cx="18" cy="18" r="14" stroke="#2563EB" stroke-width="2" />
  <circle cx="18" cy="18" r="3" fill="#2563EB" />
  <g stroke="#2563EB" stroke-width="1">
    <line x1="18" y1="4" x2="18" y2="32" />
    <line x1="4" y1="18" x2="32" y2="18" />
    <line x1="8.1" y1="8.1" x2="27.9" y2="27.9" />
    <line x1="8.1" y1="27.9" x2="27.9" y2="8.1" />
    <line x1="18" y1="4" x2="18" y2="32" transform="rotate(15 18 18)" />
    <line x1="18" y1="4" x2="18" y2="32" transform="rotate(30 18 18)" />
    <line x1="18" y1="4" x2="18" y2="32" transform="rotate(45 18 18)" />
    <line x1="18" y1="4" x2="18" y2="32" transform="rotate(60 18 18)" />
    <line x1="18" y1="4" x2="18" y2="32" transform="rotate(75 18 18)" />
    <line x1="18" y1="4" x2="18" y2="32" transform="rotate(105 18 18)" />
    <line x1="18" y1="4" x2="18" y2="32" transform="rotate(120 18 18)" />
    <line x1="18" y1="4" x2="18" y2="32" transform="rotate(135 18 18)" />
    <line x1="18" y1="4" x2="18" y2="32" transform="rotate(150 18 18)" />
    <line x1="18" y1="4" x2="18" y2="32" transform="rotate(165 18 18)" />
  </g>
</svg>
